<svg width="25" height="28" viewBox="0 0 25 28" fill="none" xmlns="http://www.w3.org/2000/svg">
<path d="M23.7673 26.3837V23.5994C23.7673 22.1225 23.1806 20.7062 22.1363 19.6619C21.092 18.6175 19.6756 18.0309 18.1988 18.0309H16.8066C16.4374 18.0309 16.0833 17.8842 15.8222 17.6231C15.5612 17.362 15.4145 17.0079 15.4145 16.6387V9.67803C15.4145 8.93959 15.1211 8.2314 14.599 7.70925C14.0768 7.18709 13.3687 6.89375 12.6302 6.89375C11.8918 6.89375 11.1836 7.18709 10.6614 7.70925C10.1393 8.2314 9.84594 8.93959 9.84594 9.67803V22.2073L6.5048 17.7524C6.24546 17.4066 5.90916 17.126 5.52255 16.9327C5.13594 16.7394 4.70963 16.6387 4.27738 16.6387H3.67319C2.46899 16.6387 1.4931 17.6146 1.4931 18.8188C1.4931 19.2142 1.6003 19.6026 1.80355 19.9409L5.66952 26.3837M12.6302 2.71733V1.3252V2.71733ZM20.983 11.0702H22.3752H20.983ZM2.88524 11.0702H4.27738H2.88524ZM6.14702 4.58698L5.16278 3.60273L6.14702 4.58698ZM19.1134 4.58698L20.0976 3.60273L19.1134 4.58698Z" fill="#4CAF4F"/>
<path d="M23.7673 26.3837V23.5994C23.7673 22.1225 23.1806 20.7062 22.1363 19.6619C21.092 18.6175 19.6756 18.0309 18.1988 18.0309H16.8066C16.4374 18.0309 16.0833 17.8842 15.8222 17.6231C15.5612 17.362 15.4145 17.0079 15.4145 16.6387V9.67803C15.4145 8.93959 15.1211 8.2314 14.599 7.70925C14.0768 7.18709 13.3687 6.89375 12.6302 6.89375V6.89375C11.8918 6.89375 11.1836 7.18709 10.6614 7.70925C10.1393 8.2314 9.84594 8.93959 9.84594 9.67803V22.2073L6.5048 17.7524C6.24546 17.4066 5.90916 17.126 5.52255 16.9327C5.13594 16.7394 4.70963 16.6387 4.27738 16.6387H3.67319C2.46899 16.6387 1.4931 17.6146 1.4931 18.8188C1.4931 19.2142 1.6003 19.6026 1.80355 19.9409L5.66952 26.3837M12.6302 2.71733V1.3252M20.983 11.0702H22.3752M2.88524 11.0702H4.27738M6.14702 4.58698L5.16278 3.60273M19.1134 4.58698L20.0976 3.60273" stroke="#4CAF4F" stroke-width="1.39214" stroke-linecap="round" stroke-linejoin="round"/>
</svg>
