<svg width="24" height="22" viewBox="0 0 24 22" fill="none" xmlns="http://www.w3.org/2000/svg">
<path d="M15.1283 10.4212C14.9607 10.4212 14.805 10.3751 14.6668 10.301V10.3029C14.6668 10.5666 14.5643 10.8143 14.3783 10.9998C14.1924 11.1857 13.9449 11.2882 13.6815 11.2882C13.5115 11.2882 13.3539 11.241 13.2141 11.1649C13.2 11.4061 13.1036 11.6316 12.9316 11.8038C12.7456 11.9898 12.4982 12.0923 12.2346 12.0923C11.7109 12.0923 11.2857 11.6807 11.2551 11.1647C11.093 11.2523 10.9099 11.2982 10.7209 11.2861C10.2058 11.2523 9.8024 10.8072 9.8024 10.2726V5.84097L9.29778 6.7152C9.10558 7.04958 8.7458 7.25719 8.35843 7.25719C8.16967 7.25719 7.98321 7.20767 7.81808 7.11304C7.61243 6.99382 7.46533 6.80244 7.40416 6.57349C7.34266 6.34439 7.37448 6.1048 7.49337 5.89947C7.49353 5.89947 9.14444 3.04057 9.24516 2.86496C9.25713 2.83856 9.29124 2.76197 9.32027 2.6967C9.34798 2.63439 9.37176 2.57043 9.39455 2.50614C9.89242 1.10058 11.1252 0.227482 12.6119 0.227482C14.5426 0.227482 16.1133 1.93069 16.1133 4.02426L16.1135 9.43575C16.1135 9.69912 16.0112 9.94659 15.8254 10.1327C15.6394 10.3187 15.3919 10.4212 15.1282 10.4212L15.1283 10.4212ZM12.612 0.751025C11.3344 0.751025 10.3162 1.47261 9.88803 2.68124C9.86064 2.75798 9.83211 2.83473 9.79882 2.90951C9.70222 3.12615 9.70222 3.12615 9.675 3.1573L9.67139 3.15419C9.53659 3.40854 9.13612 4.10206 7.94669 6.16149C7.89782 6.24594 7.88486 6.34401 7.90979 6.43782C7.93504 6.53162 7.99556 6.61066 8.07936 6.65904C8.33945 6.80844 8.69565 6.71201 8.84389 6.45372L9.83753 4.73342C9.89689 4.63093 10.0169 4.58058 10.1321 4.61174C10.2465 4.64241 10.3261 4.74622 10.3261 4.86462V10.2727C10.3261 10.5279 10.5186 10.7482 10.7552 10.7637C10.8917 10.7709 11.0189 10.7252 11.1145 10.6297C11.2015 10.5428 11.2493 10.4271 11.2493 10.3032V6.76625C11.2493 6.62161 11.3666 6.50435 11.5112 6.50435C11.6559 6.50435 11.7731 6.62145 11.7731 6.76625L11.773 11.1072C11.773 11.3617 11.9801 11.5688 12.2346 11.5688C12.3583 11.5688 12.4744 11.5209 12.5615 11.434C12.6484 11.347 12.6963 11.2308 12.6963 11.1072V6.76625C12.6963 6.62161 12.8133 6.50435 12.9581 6.50435C13.1028 6.50435 13.22 6.62144 13.22 6.76625L13.2199 10.2626V10.3032C13.2199 10.5576 13.427 10.7647 13.6817 10.7647C13.8052 10.7647 13.9209 10.7166 14.0085 10.6294C14.0954 10.5426 14.1433 10.4269 14.1433 10.3031V6.76606C14.1433 6.62142 14.2604 6.50417 14.4052 6.50417C14.5499 6.50417 14.6671 6.62126 14.6671 6.76606L14.6668 9.43587C14.6668 9.69055 14.8739 9.89767 15.1283 9.89767C15.2521 9.89767 15.3678 9.84963 15.4548 9.76287C15.542 9.67563 15.5897 9.55952 15.5897 9.43587L15.5899 4.02438C15.5899 2.21966 14.254 0.751079 12.6119 0.751079L12.612 0.751025Z" fill="#103E13"/>
<path d="M4.83859 14.1823L8.63893 11.9025C9.09712 11.6273 9.68668 11.7443 9.98055 12.1688C10.0878 12.3235 10.1426 12.5037 10.1511 12.6872C10.2928 12.6133 10.4469 12.5731 10.6039 12.5731C10.6842 12.5731 10.7649 12.5831 10.8446 12.6029C11.1 12.6667 11.3151 12.8263 11.4504 13.0519C11.5859 13.2779 11.6254 13.5427 11.5616 13.7978C11.5027 14.0338 11.3592 14.2324 11.1597 14.3687C11.2992 14.451 11.4196 14.5633 11.5052 14.7063C11.6407 14.9323 11.6802 15.197 11.6165 15.4523C11.5528 15.7073 11.3932 15.9225 11.1672 16.0581L11.1659 16.059C11.303 16.1411 11.4212 16.2523 11.5059 16.3932C11.6415 16.6192 11.681 16.884 11.6172 17.1393C11.5533 17.3945 11.3937 17.6096 11.168 17.7451L6.52776 20.5289C5.66172 21.0483 4.66053 21.2275 3.70905 21.0332C2.74904 20.8371 1.95398 20.2853 1.47056 19.4794C0.705522 18.2043 0.820175 16.6979 1.76919 15.5481C1.81265 15.4956 1.85545 15.4422 1.89432 15.3867C1.93548 15.3282 1.98353 15.2593 1.99993 15.2357C2.09816 15.0602 3.70104 12.1723 3.70088 12.1727C3.86274 11.8806 4.16612 11.7153 4.47901 11.7154C4.62497 11.7154 4.77305 11.7513 4.90967 11.8271C5.07464 11.9193 5.21322 12.0536 5.31014 12.2154C5.50939 12.5475 5.51644 12.9631 5.32883 13.2994L4.83859 14.1823ZM4.86138 12.4847C4.81055 12.3999 4.74068 12.3323 4.65524 12.2844C4.47862 12.1867 4.25625 12.2503 4.15901 12.4263C3.01206 14.4926 2.62109 15.1968 2.4702 15.4474L2.47365 15.4482C2.46102 15.4902 2.46102 15.4902 2.32294 15.6874C2.27604 15.7542 2.22504 15.8183 2.17305 15.8815C1.357 16.8702 1.26225 18.1144 1.91935 19.21C2.32638 19.8886 2.99909 20.3538 3.81362 20.5201C4.63702 20.6876 5.50487 20.5318 6.25812 20.0798L10.8988 17.2959C11.0048 17.2324 11.0795 17.1316 11.1094 17.012C11.1392 16.8927 11.1207 16.7685 11.0571 16.6626C10.9262 16.4445 10.642 16.3728 10.4239 16.5042L8.13457 17.8776C8.01059 17.9521 7.84955 17.912 7.77526 17.7879C7.70081 17.6639 7.74098 17.503 7.86496 17.4286L10.1545 16.0551L10.898 15.6091C11.0039 15.5455 11.0789 15.4446 11.1087 15.3254C11.1386 15.2058 11.12 15.0815 11.0564 14.9758C10.9254 14.7575 10.6412 14.6865 10.4232 14.8173L7.3902 16.6368C7.2659 16.7115 7.10535 16.6711 7.0309 16.5471C6.95644 16.4232 6.99679 16.2623 7.1206 16.1878L10.8431 13.9548C10.949 13.8911 11.0238 13.7904 11.0536 13.6709C11.0835 13.5515 11.0649 13.4274 11.0015 13.3214C10.938 13.2156 10.8372 13.1409 10.7176 13.111C10.5974 13.0812 10.4738 13.0997 10.3681 13.163L9.67905 13.5764C9.67889 13.5764 9.67889 13.5766 9.67872 13.5766H9.67856L6.64569 15.3961C6.52138 15.4709 6.36067 15.4305 6.28638 15.3064C6.21193 15.1824 6.25227 15.0215 6.37608 14.9471L9.40912 13.1276C9.51506 13.064 9.59 12.9631 9.61985 12.8439C9.65265 12.713 9.62772 12.5792 9.54999 12.467C9.41519 12.272 9.12689 12.2202 8.90829 12.3516L4.27095 15.1336C4.16944 15.1942 4.0394 15.1795 3.95428 15.0973C3.86901 15.015 3.84982 14.8856 3.90722 14.7821L4.8715 13.0448C4.96826 12.8711 4.96448 12.6566 4.86133 12.4847L4.86138 12.4847Z" fill="#103E13"/>
<path d="M22.9983 19.4793C22.515 20.2853 21.7202 20.837 20.76 21.0331C19.8084 21.2271 18.8075 21.0482 17.9413 20.5288L13.3006 17.7449C13.0748 17.6094 12.9151 17.3943 12.8511 17.1388C12.7876 16.8837 12.8273 16.6189 12.9626 16.3932C13.0471 16.2522 13.1655 16.141 13.3027 16.0589L13.3014 16.058C13.0756 15.9226 12.9159 15.7074 12.8523 15.4522C12.7883 15.1971 12.828 14.932 12.9634 14.7061C13.0507 14.561 13.1702 14.4475 13.3067 14.367C13.1086 14.2307 12.9659 14.0327 12.9072 13.7979C12.8432 13.5426 12.8829 13.2777 13.0184 13.052C13.1537 12.8262 13.369 12.6667 13.6242 12.6029C13.7039 12.5829 13.7847 12.573 13.8648 12.573C14.0219 12.5732 14.176 12.613 14.3177 12.6872C14.3264 12.5037 14.381 12.3234 14.4883 12.1688C14.7823 11.7445 15.3714 11.6271 15.8302 11.9024L19.6304 14.1819L19.1406 13.2996C18.9527 12.9628 18.9595 12.5472 19.1588 12.215C19.2559 12.0533 19.3946 11.919 19.5604 11.826C19.6967 11.7506 19.8443 11.7148 19.9899 11.7148C20.3026 11.715 20.6063 11.88 20.768 12.1721C21.3315 13.1873 22.3948 15.1021 22.4696 15.2358C22.4855 15.2589 22.5336 15.3278 22.5747 15.3863C22.6139 15.4419 22.6562 15.495 22.7 15.5479C23.6489 16.6981 23.7633 18.2044 22.9983 19.4793L22.9983 19.4793ZM22.296 15.8816C22.2438 15.8185 22.1927 15.754 22.1461 15.6876C22.0044 15.4865 22.0008 15.4813 21.9901 15.4287C21.8245 15.1546 21.4204 14.4272 20.3097 12.4261C20.2123 12.2505 19.9909 12.1863 19.8146 12.2838C19.7279 12.3323 19.6582 12.4 19.6073 12.4848C19.5044 12.6565 19.5004 12.871 19.5977 13.0452L20.5616 14.782C20.6192 14.8857 20.6 15.0149 20.5149 15.0972C20.4299 15.1797 20.3 15.1941 20.198 15.1335L15.5607 12.3515C15.3421 12.2204 15.054 12.2718 14.9188 12.4669C14.8411 12.5791 14.8163 12.7129 14.8488 12.8436C14.8787 12.963 14.9536 13.0637 15.0597 13.1273C15.06 13.1275 15.0602 13.1278 15.0605 13.128L18.0926 14.947C18.2166 15.0214 18.2568 15.1821 18.1823 15.3063C18.1078 15.4301 17.9473 15.4706 17.823 15.396L14.1005 13.1629C13.9949 13.0996 13.8706 13.0809 13.7512 13.1109C13.6315 13.1408 13.5308 13.2156 13.4673 13.3217C13.4037 13.4274 13.3854 13.5516 13.4149 13.671C13.4447 13.7904 13.5197 13.8912 13.6256 13.9548L14.35 14.3893L17.3479 16.188C17.4719 16.2624 17.5121 16.4231 17.4376 16.5473C17.3632 16.6711 17.2026 16.7114 17.0783 16.637L14.0456 14.8175C13.8275 14.6863 13.5434 14.7574 13.4123 14.9759C13.3486 15.0818 13.3303 15.206 13.3598 15.3253C13.3896 15.4447 13.4646 15.5454 13.5707 15.6092L14.3142 16.0553L16.6034 17.4287C16.7273 17.5032 16.7675 17.6639 16.6931 17.788C16.6186 17.9118 16.4581 17.9525 16.3338 17.8777L14.0446 16.5043C13.939 16.441 13.8152 16.4223 13.6951 16.4523C13.5757 16.4821 13.4747 16.5569 13.4113 16.6627C13.3478 16.7686 13.3293 16.8929 13.3588 17.0122C13.3886 17.1316 13.4636 17.2322 13.5697 17.296L18.2104 20.08C18.9635 20.5318 19.8319 20.6882 20.6549 20.5203C21.4692 20.354 22.142 19.8887 22.549 19.2101C23.2068 18.1143 23.1121 16.87 22.2963 15.8816L22.296 15.8816Z" fill="#103E13"/>
</svg>
