<svg width="26" height="22" viewBox="0 0 26 22" fill="none" xmlns="http://www.w3.org/2000/svg">
<path d="M15.2834 7.19566C15.0662 7.19566 14.8896 7.01938 14.8896 6.80191V6.13276C14.8896 5.91557 15.0659 5.73901 15.2834 5.73901C15.5006 5.73901 15.6771 5.91529 15.6771 6.13276V6.80191C15.6771 7.01938 15.5006 7.19566 15.2834 7.19566Z" fill="#103E13"/>
<path d="M13.628 7.19566C13.4108 7.19566 13.2343 7.01938 13.2343 6.80191V6.13276C13.2343 5.91557 13.4105 5.73901 13.628 5.73901C13.8452 5.73901 14.0217 5.91529 14.0217 6.13276V6.80191C14.0215 7.01938 13.8455 7.19566 13.628 7.19566Z" fill="#103E13"/>
<path d="M11.9727 7.19566C11.7555 7.19566 11.579 7.01938 11.579 6.80191V6.13276C11.579 5.91557 11.7553 5.73901 11.9727 5.73901C12.1899 5.73901 12.3665 5.91529 12.3665 6.13276V6.80191C12.3665 7.01938 12.1902 7.19566 11.9727 7.19566Z" fill="#103E13"/>
<path d="M15.2834 9.9322C15.0662 9.9322 14.8896 9.75592 14.8896 9.53845V8.86958C14.8896 8.65239 15.0659 8.47583 15.2834 8.47583C15.5006 8.47583 15.6771 8.65211 15.6771 8.86958V9.53845C15.6771 9.75592 15.5006 9.9322 15.2834 9.9322Z" fill="#103E13"/>
<path d="M13.628 9.9322C13.4108 9.9322 13.2343 9.75592 13.2343 9.53845V8.86958C13.2343 8.65239 13.4105 8.47583 13.628 8.47583C13.8452 8.47583 14.0217 8.65211 14.0217 8.86958V9.53845C14.0215 9.75592 13.8455 9.9322 13.628 9.9322Z" fill="#103E13"/>
<path d="M11.9727 9.9322C11.7555 9.9322 11.579 9.75592 11.579 9.53845V8.86958C11.579 8.65239 11.7553 8.47583 11.9727 8.47583C12.1899 8.47583 12.3665 8.65211 12.3665 8.86958V9.53845C12.3665 9.75592 12.1902 9.9322 11.9727 9.9322Z" fill="#103E13"/>
<path d="M15.2834 12.6686C15.0662 12.6686 14.8896 12.4923 14.8896 12.2748V11.6057C14.8896 11.3885 15.0659 11.2119 15.2834 11.2119C15.5006 11.2119 15.6771 11.3882 15.6771 11.6057V12.2748C15.6771 12.4923 15.5006 12.6686 15.2834 12.6686Z" fill="#103E13"/>
<path d="M13.628 12.6686C13.4108 12.6686 13.2343 12.4923 13.2343 12.2748V11.6057C13.2343 11.3885 13.4105 11.2119 13.628 11.2119C13.8452 11.2119 14.0217 11.3882 14.0217 11.6057V12.2748C14.0215 12.4923 13.8455 12.6686 13.628 12.6686Z" fill="#103E13"/>
<path d="M11.9727 12.6686C11.7555 12.6686 11.579 12.4923 11.579 12.2748V11.6057C11.579 11.3885 11.7553 11.2119 11.9727 11.2119C12.1899 11.2119 12.3665 11.3882 12.3665 11.6057V12.2748C12.3665 12.4923 12.1902 12.6686 11.9727 12.6686Z" fill="#103E13"/>
<path d="M15.2834 15.4044C15.0662 15.4044 14.8896 15.2281 14.8896 15.0106V14.3415C14.8896 14.1243 15.0659 13.9478 15.2834 13.9478C15.5006 13.9478 15.6771 14.124 15.6771 14.3415V15.0106C15.6771 15.2281 15.5006 15.4044 15.2834 15.4044Z" fill="#103E13"/>
<path d="M13.628 15.4044C13.4108 15.4044 13.2343 15.2281 13.2343 15.0106V14.3415C13.2343 14.1243 13.4105 13.9478 13.628 13.9478C13.8452 13.9478 14.0217 14.124 14.0217 14.3415V15.0106C14.0215 15.2281 13.8455 15.4044 13.628 15.4044Z" fill="#103E13"/>
<path d="M11.9727 15.4044C11.7555 15.4044 11.579 15.2281 11.579 15.0106V14.3415C11.579 14.1243 11.7553 13.9478 11.9727 13.9478C12.1899 13.9478 12.3665 14.124 12.3665 14.3415V15.0106C12.3665 15.2281 12.1902 15.4044 11.9727 15.4044Z" fill="#103E13"/>
<path d="M15.2834 18.1409C15.0662 18.1409 14.8896 17.9647 14.8896 17.7472V17.0783C14.8896 16.8611 15.0659 16.6846 15.2834 16.6846C15.5006 16.6846 15.6771 16.8609 15.6771 17.0783V17.7472C15.6771 17.9644 15.5006 18.1409 15.2834 18.1409Z" fill="#103E13"/>
<path d="M13.628 18.1409C13.4108 18.1409 13.2343 17.9647 13.2343 17.7472V17.0783C13.2343 16.8611 13.4105 16.6846 13.628 16.6846C13.8452 16.6846 14.0217 16.8609 14.0217 17.0783V17.7472C14.0215 17.9644 13.8455 18.1409 13.628 18.1409Z" fill="#103E13"/>
<path d="M11.9727 18.1409C11.7555 18.1409 11.579 17.9647 11.579 17.7472L11.5793 17.0783C11.5793 16.8611 11.7555 16.6846 11.973 16.6846C12.1902 16.6846 12.3668 16.8609 12.3668 17.0783V17.7472C12.3665 17.9644 12.1902 18.1409 11.9727 18.1409Z" fill="#103E13"/>
<path d="M0.724512 20.864C0.724512 21.0812 0.900791 21.2578 1.11826 21.2578H25.0963C25.3135 21.2578 25.49 21.0815 25.49 20.864C25.49 20.6468 25.3138 20.4703 25.0963 20.4703H24.3684V9.16519C24.3684 8.948 24.1921 8.77144 23.9747 8.77144L17.546 8.77171V0.621349C17.546 0.483513 17.474 0.356109 17.3565 0.284713C17.2393 0.213051 17.0926 0.208658 16.9707 0.272083L9.66176 4.07748C9.53133 4.1453 9.45006 4.27985 9.45006 4.42675V11.5459H2.37657C2.15938 11.5459 1.98282 11.7222 1.98282 11.9397V20.4703H1.11738C0.900194 20.47 0.724182 20.6463 0.724182 20.8638L0.724512 20.864ZM17.5461 14.7352H23.5813V20.4706L17.5461 20.4703V14.7352ZM17.5461 11.999H23.5813V13.948L17.5461 13.9477V11.999ZM17.5461 9.55879H23.5813V11.2121H17.5461V9.55879ZM10.2371 4.66583L16.7583 1.27038V20.4699H10.2371V4.66583ZM4.71675 17.3254C4.71675 16.5083 5.3642 15.8433 6.1602 15.8433C6.95619 15.8433 7.60393 16.508 7.60393 17.3254V20.4704H4.71675V17.3254ZM2.77029 12.3333H9.44994V20.4703H8.39141V17.3253C8.39141 16.074 7.39087 15.0559 6.1602 15.0559C4.93009 15.0559 3.92955 16.0737 3.92955 17.3253V20.4703H2.77029V12.3333Z" fill="#103E13"/>
</svg>
