<svg width="35" height="20" viewBox="0 0 35 20" fill="none" xmlns="http://www.w3.org/2000/svg">
<path d="M17.3729 0.923584C14.887 0.923584 12.8633 2.96577 12.8633 5.46219C12.8633 7.04146 13.6743 8.43589 14.8989 9.24868C13.4198 9.74323 12.14 10.6675 11.2014 11.8767C10.6824 11.4775 10.1025 11.1565 9.47738 10.9265C10.4253 10.2227 11.0448 9.0922 11.0448 7.82162C11.0448 5.70435 9.33242 3.97111 7.22798 3.97111C5.12355 3.97111 3.41116 5.70435 3.41116 7.82162C3.41116 9.09293 4.03115 10.2239 4.9799 10.9277C2.46808 11.8546 0.674164 14.2813 0.674164 17.1373V19.1435C0.674421 19.2964 0.735597 19.443 0.844067 19.5507C0.952536 19.6586 1.09931 19.7188 1.25225 19.7183H10.054C10.0754 19.7206 10.0967 19.7218 10.118 19.7216H24.6282C24.6495 19.7218 24.6711 19.7206 24.6922 19.7183H33.4946C33.811 19.717 34.0673 19.4602 34.0681 19.1435V17.1373C34.0681 14.2813 32.2773 11.8546 29.7668 10.9274C30.7155 10.2239 31.3355 9.09266 31.3355 7.82135C31.3355 5.70409 29.6231 3.97084 27.5187 3.97084C25.4143 3.97084 23.7018 5.70409 23.7018 7.82135C23.7018 9.09194 24.3216 10.2226 25.2695 10.9262C24.6431 11.1568 24.063 11.4788 23.5433 11.879C22.605 10.6691 21.327 9.74352 19.848 9.24868C21.0723 8.43589 21.8836 7.04146 21.8836 5.46219C21.8836 2.96577 19.8588 0.923584 17.373 0.923584H17.3729ZM17.3729 2.07513C19.232 2.07513 20.7308 3.58399 20.7308 5.46219C20.7308 7.32573 19.2554 8.81991 17.4168 8.84386C17.4022 8.84386 17.3878 8.84181 17.3729 8.84181C17.358 8.84181 17.3438 8.84386 17.3289 8.84386C15.4903 8.82021 14.0159 7.32579 14.0159 5.46219C14.0159 3.58372 15.5134 2.07513 17.3726 2.07513H17.3729ZM7.22805 5.12259C8.70322 5.12259 9.89332 6.31987 9.89332 7.82155C9.89332 9.31317 8.71861 10.5053 7.25733 10.5215C7.24756 10.5215 7.23805 10.5205 7.22803 10.5205C7.21826 10.5205 7.20875 10.5215 7.19873 10.5215C5.73745 10.5053 4.56274 9.31291 4.56274 7.82155C4.56274 6.31993 5.75284 5.12259 7.22801 5.12259H7.22805ZM27.5183 5.12259C28.9935 5.12259 30.1836 6.31987 30.1836 7.82155C30.1836 9.31317 29.0089 10.5053 27.5476 10.5215C27.5378 10.5215 27.5283 10.5205 27.5183 10.5205C27.5085 10.5205 27.499 10.5215 27.489 10.5215C26.0277 10.5053 24.853 9.31291 24.853 7.82155C24.853 6.31993 26.0431 5.12259 27.5183 5.12259H27.5183ZM17.3288 9.99535C17.3434 9.9956 17.3578 9.9974 17.3727 9.9974C17.3874 9.9974 17.4018 9.99535 17.4167 9.99535C21.1039 10.019 24.0549 12.9953 24.0549 16.721L24.0546 18.5697H10.6914V16.721C10.6914 12.995 13.6414 10.019 17.3282 9.99535H17.3288ZM7.18396 11.6744C7.19861 11.6746 7.21301 11.6764 7.22792 11.6764C7.24282 11.6764 7.25696 11.6744 7.27187 11.6744C8.51903 11.6844 9.65722 12.1144 10.5635 12.8339C9.915 13.9813 9.53996 15.3058 9.53996 16.7214V18.5656H1.82525V17.1372C1.82525 14.1093 4.20599 11.698 7.18383 11.6741L7.18396 11.6744ZM27.4742 11.6744C27.4891 11.6746 27.5033 11.6764 27.5182 11.6764C27.5331 11.6764 27.5472 11.6744 27.5621 11.6744C30.54 11.698 32.9207 14.1096 32.9207 17.1375V18.5656H25.2021L25.2018 16.7214C25.2018 15.3066 24.8278 13.9831 24.1805 12.8359C25.0871 12.1154 26.2261 11.6844 27.4743 11.6744H27.4742Z" fill="#103E13"/>
</svg>
